# xmcd
#
# Track frame offsets: 
#        195
#        18717
#        36152
#        57725
#        76857
#        99585
#        119975
#        139982
#        152442
#        171277
#        188530
#        209265
#
# Disc length: 3143 seconds
#
# Revision: 3
# Processed by: cddbd v1.5.1PL0 Copyright (c) Steve Scherf et al.
# Submitted via: ExactAudioCopy v0.95a5
#
DISCID=a90c450c
DTITLE=Joe Grushecky and The Houserockers - End Of The Century
DYEAR=1992
DGENRE=Rock and Roll
TTITLE0=Talking To The King
TTITLE1=She's My Everything
TTITLE2=Bad Dream
TTITLE3=Love To Blame
TTITLE4=No Man's Land
TTITLE5=End Of The Century
TTITLE6=Oh Kathleen
TTITLE7=Silence Of Your Arms
TTITLE8=Lighten Up
TTITLE9=The Heart Is A Lonely Hunter
TTITLE10=The Bells Still Toll
TTITLE11=Don't Give Up The Ghost
EXTD=
EXTT0=
EXTT1=
EXTT2=
EXTT3=
EXTT4=
EXTT5=
EXTT6=
EXTT7=
EXTT8=
EXTT9=
EXTT10=
EXTT11=
PLAYORDER=
